<svg xmlns="http://www.w3.org/2000/svg" viewBox="25 190 430 150" width="450" height="157">

  <!-- Split "L" — document vertical + waveform horizontal -->

  <!-- Vertical stroke (document page with fold) -->
  <path d="M41.6,195.8 L53.1,195.8 L59.1,201.8 L59.1,288.6 L39.6,288.6 L39.6,197.8 A2,2 0 0 1 41.6,195.8 Z" fill="#ffffff"/>

  <!-- Fold triangle -->
  <path d="M53.1,195.8 L53.1,201.8 L59.1,201.8 Z" fill="#000000" fill-opacity="0.15"/>

  <!-- Text lines on document -->
  <rect x="43" y="205" width="12.7" height="1.6" rx="0.8" fill="#000000" fill-opacity="0.12"/>
  <rect x="43" y="209.5" width="9.4" height="1.6" rx="0.8" fill="#000000" fill-opacity="0.12"/>
  <rect x="43" y="214" width="11.3" height="1.6" rx="0.8" fill="#000000" fill-opacity="0.12"/>

  <!-- Horizontal stroke (rounded right corners) -->
  <path d="M39.6,288.6 L106.7,288.6 A2,2 0 0 1 108.7,290.6 L108.7,303.0 A2,2 0 0 1 106.7,305.0 L39.6,305.0 Z" fill="#ffffff"/>

  <!-- Waveform bars extending upward from horizontal stroke -->
  <rect x="74.0" y="283.0" width="2.5" height="5.6" rx="1.25" fill="#ffffff" fill-opacity="0.5"/>
  <rect x="78.3" y="278.1" width="2.5" height="10.5" rx="1.25" fill="#ffffff" fill-opacity="0.65"/>
  <rect x="82.6" y="273.3" width="2.5" height="15.3" rx="1.25" fill="#ffffff" fill-opacity="0.8"/>
  <rect x="86.9" y="278.1" width="2.5" height="10.5" rx="1.25" fill="#ffffff" fill-opacity="0.65"/>
  <rect x="91.2" y="283.0" width="2.5" height="5.6" rx="1.25" fill="#ffffff" fill-opacity="0.5"/>

  <!-- "ogue" letters (unchanged) -->
  <g fill="#ffffff">
    <!-- "o" -->
    <path d="M151.8,306.6Q140.0,306.6,131.3,301.6Q122.5,296.5,117.7,287.2Q112.9,277.8,112.9,264.9L112.9,264.8Q112.9,251.9,117.8,242.5Q122.6,233.2,131.3,228.2Q140.1,223.1,151.7,223.1Q163.4,223.1,172.2,228.2Q180.9,233.2,185.7,242.5Q190.6,251.8,190.6,264.8L190.6,264.9Q190.6,277.9,185.8,287.2Q181.0,296.6,172.2,301.6Q163.5,306.6,151.8,306.6ZM151.8,291.4Q157.8,291.4,162.2,288.3Q166.6,285.1,169.0,279.2Q171.4,273.3,171.4,264.9L171.4,264.8Q171.4,256.4,169.0,250.5Q166.5,244.6,162.1,241.5Q157.7,238.4,151.7,238.4Q145.9,238.4,141.4,241.5Q137.0,244.6,134.6,250.5Q132.1,256.4,132.1,264.8L132.1,264.9Q132.1,273.3,134.5,279.2Q137.0,285.1,141.4,288.3Q145.8,291.4,151.8,291.4Z"/>
    <!-- "g" -->
    <path d="M235.8,333.1Q225.2,333.1,217.3,330.2Q209.5,327.2,204.7,322.2Q200.0,317.1,198.9,310.8L198.8,310.2L217.3,310.2L217.5,310.8Q219.0,314.2,223.8,316.5Q228.5,318.9,235.8,318.9Q245.0,318.9,249.9,314.3Q254.8,309.8,254.8,302.1L254.8,290.5L254.4,290.5Q252.2,294.9,248.6,298.0Q244.9,301.1,240.0,302.8Q235.2,304.6,229.4,304.6Q219.3,304.6,211.9,299.6Q204.4,294.7,200.4,285.7Q196.3,276.6,196.3,264.2L196.3,264.1Q196.3,251.4,200.5,242.2Q204.6,233.1,212.1,228.1Q219.6,223.1,229.7,223.1Q235.4,223.1,240.2,225.0Q244.9,227.0,248.5,230.4Q252.1,233.8,254.4,238.4L254.8,238.4L254.8,224.8L273.7,224.8L273.7,302.8Q273.7,311.8,269.1,318.7Q264.4,325.5,256.0,329.3Q247.5,333.1,235.8,333.1ZM235.3,290.0Q241.2,290.0,245.6,286.9Q250.0,283.7,252.4,278.0Q254.9,272.3,254.9,264.5L254.9,264.4Q254.9,256.6,252.4,250.9Q250.0,245.2,245.5,242.1Q241.1,239.0,235.3,239.0Q229.3,239.0,224.8,242.1Q220.3,245.2,217.9,250.9Q215.5,256.6,215.5,264.4L215.5,264.5Q215.5,272.4,217.9,278.1Q220.3,283.8,224.8,286.9Q229.3,290.0,235.3,290.0Z"/>
    <!-- "u" -->
    <path d="M313.4,306.6Q304.6,306.6,298.4,303.0Q292.2,299.4,288.9,292.6Q285.7,285.9,285.7,276.7L285.7,224.8L304.5,224.8L304.5,272.9Q304.5,281.5,308.5,286.1Q312.5,290.7,320.6,290.7Q324.6,290.7,327.9,289.3Q331.1,287.9,333.5,285.4Q335.8,282.8,337.1,279.2Q338.3,275.6,338.3,271.3L338.3,224.8L357.1,224.8L357.1,305.0L338.3,305.0L338.3,292.4L337.9,292.4Q335.8,296.7,332.4,299.9Q329.0,303.1,324.2,304.8Q319.5,306.6,313.4,306.6Z"/>
    <!-- "e" -->
    <path d="M404.8,306.6Q392.8,306.6,384.1,301.5Q375.5,296.5,370.9,287.1Q366.2,277.8,366.2,265.1L366.2,265.0Q366.2,252.4,370.9,243.0Q375.5,233.5,384.0,228.3Q392.4,223.1,403.9,223.1Q415.4,223.1,423.7,228.2Q432.0,233.2,436.5,242.3Q441.1,251.3,441.1,263.4L441.1,269.5L375.5,269.5L375.5,256.9L432.1,256.9L423.0,268.7L423.0,261.4Q423.0,253.5,420.6,248.3Q418.2,243.1,413.9,240.5Q409.7,237.9,404.1,237.9Q398.6,237.9,394.2,240.6Q389.9,243.3,387.4,248.5Q384.9,253.8,384.9,261.4L384.9,268.7Q384.9,276.0,387.4,281.2Q389.8,286.4,394.4,289.1Q398.9,291.9,405.2,291.9Q409.9,291.9,413.4,290.4Q417.0,289.0,419.3,286.6Q421.6,284.3,422.5,281.5L422.7,281.0L440.3,281.0L440.1,281.8Q439.1,286.4,436.5,290.9Q433.8,295.3,429.3,298.9Q424.9,302.4,418.8,304.5Q412.6,306.6,404.8,306.6Z"/>
  </g>
</svg>
